<svg xmlns="http://www.w3.org/2000/svg" xmlns:xlink="http://www.w3.org/1999/xlink" width="160" height="90" viewBox="0 0 160 90"><defs><clipPath id="b"><rect width="160" height="90"/></clipPath></defs><g id="a" clip-path="url(#b)"><rect width="160" height="90" fill="#c7c7c8"/><g transform="translate(49.34 17.21)" fill="#fff" stroke="#000" stroke-width="2" stroke-dasharray="5 1" opacity="0.587"><rect width="55.581" height="55.581" stroke="none"/><rect x="1" y="1" width="53.581" height="53.581" fill="none"/></g><g transform="translate(42.757 25.946) rotate(-16)" fill="#fff" stroke="#000" stroke-width="2"><rect width="55.581" height="55.581" stroke="none"/><rect x="1" y="1" width="53.581" height="53.581" fill="none"/></g><g transform="translate(4.131)"><path d="M-12014.131,8303.076s-10.181-2.059-16.11,3.588-3.809,15.05-3.809,15.05" transform="translate(12061.296 -8292.189)" fill="none" stroke="#000" stroke-linecap="round" stroke-width="2"/><path d="M-11827.312,8355.558l4.257,4.315,4.257-4.315" transform="translate(11850.181 -8328.191)" fill="none" stroke="#000" stroke-linecap="round" stroke-linejoin="round" stroke-width="2"/></g><g transform="matrix(-0.966, 0.259, -0.259, -0.966, 158.434, 78.42)"><path d="M-12014.131,8303.076s-10.181-2.059-16.11,3.588-3.809,15.05-3.809,15.05" transform="translate(12061.296 -8292.189)" fill="none" stroke="#000" stroke-linecap="round" stroke-width="2"/><path d="M-11827.312,8355.558l4.257,4.315,4.257-4.315" transform="translate(11850.181 -8328.191)" fill="none" stroke="#000" stroke-linecap="round" stroke-linejoin="round" stroke-width="2"/></g></g></svg>