<svg xmlns="http://www.w3.org/2000/svg">
<defs>
<font id="QueenofCamelot2.0" horiz-adv-x="1058" >
  <font-face 
    font-family="Queen of Camelot 2.0"
    font-weight="400"
    font-stretch="normal"
    units-per-em="2048"
    panose-1="2 0 5 0 0 0 0 0 0 0"
    ascent="1638"
    descent="-410"
    x-height="1398"
    cap-height="1401"
    bbox="0 -373 2418 1699"
    underline-thickness="150"
    underline-position="-292"
    unicode-range="U+001D-F002"
  />
<missing-glyph horiz-adv-x="2600" 
d="M225 640v-89l-86 -54l109 -91l-159 -100l52 105l-121 100zM306 690v-88l-86 -54l109 -91l-160 -101l53 105l-121 100zM386 741v-89l-86 -54l110 -91l-160 -100l52 105l-121 100zM421 417v325h66v-96q10 11 24 17t28 6q80 0 80 -102v-150h-66v145q0 41 -33 41t-33 -41
v-145h-66zM713 498q8 -8 18 -13t22 -5t22 5t18 13t12 19q4 12 4 24t-4 23t-12 19q-8 9 -18 14q-10 4 -22 4t-22 -4q-10 -5 -18 -14q-8 -8 -12 -19q-5 -11 -5 -23t5 -24q4 -11 12 -19zM877 671v-254h-65v33h-2q-17 -33 -66 -33q-24 -1 -45 9q-22 10 -38 26q-16 17 -25 39
q-10 22 -9 47q-1 25 8 48t25 41t38 28q21 10 46 10q46 0 73 -29zM896 671h65v-41q6 17 13 27q7 11 15 16q9 5 22 7q12 2 28 2l-21 -76q-27 0 -38 -12t-11 -41v-136h-73v254zM1046 742h72v-185h1l53 113h87l-63 -124l76 -129h-89l-64 110h-1v-110h-72v325zM1300 495
q22 -22 52 -22q32 0 32 19q0 10 -18 15q-8 3 -19 5q-10 2 -21 6q-11 3 -20 8q-10 5 -17 14q-7 8 -11 21q-4 12 -4 29q0 19 7 34q8 14 20 24t28 15q16 4 35 4q21 0 42 -9q20 -9 36 -24l-39 -41q-17 14 -38 14q-24 0 -24 -14q0 -13 17 -18q14 -4 30 -7q17 -4 31 -12t24 -23
q9 -14 8 -40q0 -20 -7 -35q-8 -15 -21 -25t-30 -16q-17 -5 -35 -5q-15 0 -27 1q-13 2 -23 6q-11 4 -22 10q-11 7 -23 16zM1459 417v325h67v-96q9 11 23 17t28 6q81 0 81 -102v-150h-67v145q0 41 -33 41q-32 0 -32 -41v-145h-67zM1755 500q19 -18 41 -18q23 0 42 18
q18 16 18 42q0 12 -5 22q-5 11 -13 19t-19 13t-23 5t-22 -5q-11 -5 -19 -13t-13 -19q-5 -10 -5 -22q0 -25 18 -42zM1748 425q-24 9 -43 27q-18 17 -29 41q-11 23 -10 49q0 28 11 50q10 23 28 40t42 26q23 9 49 9t50 -9q23 -9 42 -26q18 -17 29 -40q10 -22 10 -50

<glyph glyph-name=".notdef" horiz-adv-x="2600" 
d="M225 640v-89l-86 -54l109 -91l-159 -100l52 105l-121 100zM306 690v-88l-86 -54l109 -91l-160 -101l53 105l-121 100zM386 741v-89l-86 -54l110 -91l-160 -100l52 105l-121 100zM421 417v325h66v-96q10 11 24 17t28 6q80 0 80 -102v-150h-66v145q0 41 -33 41t-33 -41
v-145h-66zM713 498q8 -8 18 -13t22 -5t22 5t18 13t12 19q4 12 4 24t-4 23t-12 19q-8 9 -18 14q-10 4 -22 4t-22 -4q-10 -5 -18 -14q-8 -8 -12 -19q-5 -11 -5 -23t5 -24q4 -11 12 -19zM877 671v-254h-65v33h-2q-17 -33 -66 -33q-24 -1 -45 9q-22 10 -38 26q-16 17 -25 39
q-10 22 -9 47q-1 25 8 48t25 41t38 28q21 10 46 10q46 0 73 -29zM896 671h65v-41q6 17 13 27q7 11 15 16q9 5 22 7q12 2 28 2l-21 -76q-27 0 -38 -12t-11 -41v-136h-73v254zM1046 742h72v-185h1l53 113h87l-63 -124l76 -129h-89l-64 110h-1v-110h-72v325zM1300 495
q22 -22 52 -22q32 0 32 19q0 10 -18 15q-8 3 -19 5q-10 2 -21 6q-11 3 -20 8q-10 5 -17 14q-7 8 -11 21q-4 12 -4 29q0 19 7 34q8 14 20 24t28 15q16 4 35 4q21 0 42 -9q20 -9 36 -24l-39 -41q-17 14 -38 14q-24 0 -24 -14q0 -13 17 -18q14 -4 30 -7q17 -4 31 -12t24 -23
q9 -14 8 -40q0 -20 -7 -35q-8 -15 -21 -25t-30 -16q-17 -5 -35 -5q-15 0 -27 1q-13 2 -23 6q-11 4 -22 10q-11 7 -23 16zM1459 417v325h67v-96q9 11 23 17t28 6q81 0 81 -102v-150h-67v145q0 41 -33 41q-32 0 -32 -41v-145h-67zM1755 500q19 -18 41 -18q23 0 42 18
q18 16 18 42q0 12 -5 22q-5 11 -13 19t-19 13t-23 5t-22 -5q-11 -5 -19 -13t-13 -19q-5 -10 -5 -22q0 -25 18 -42zM1748 425q-24 9 -43 27q-18 17 -29 41q-11 23 -10 49q0 28 11 50q10 23 28 40t42 26q23 9 49 9t50 -9q23 -9 42 -26q18 -17 29 -40q10 -22 10 -50
q0 -27 -10 -50q-11 -23 -29 -40q-19 -18 -42 -27q-24 -10 -50 -10q-24 0 -48 10zM2102 586q-23 17 -47 17q-25 0 -42 -17q-17 -16 -17 -42q0 -14 5 -26q4 -12 12 -22q7 -9 18 -14t25 -5q28 0 47 18v-72q-13 -7 -25 -9t-23 -2q-29 -1 -53 9q-25 10 -42 28q-18 17 -27 40
q-10 22 -9 46q0 29 9 54q10 25 28 42q18 18 42 27t52 9q28 3 47 -7v-74zM2122 742h72v-185h1l52 113h88l-64 -124l76 -129h-88l-64 110h-1v-110h-72v325zM2360 759q9 9 22 9t22 -9t9 -22t-9 -22t-22 -9t-22 9t-9 22t9 22zM2356 711q11 -11 26 -11t25 11q11 11 11 26t-11 25
q-10 11 -25 11t-26 -11q-10 -10 -10 -25t10 -26zM2371 740h11h6q2 1 3 3t1 3q0 3 -2 5t-6 2h-13v-13zM2365 717v40h18q6 0 8 -1q3 -1 5 -3q2 -3 2 -7t-3 -7t-9 -3q2 -2 4 -2l4 -6l7 -11h-7l-5 9q-2 3 -4 5q-1 2 -3 3q-1 1 -2 1h-3h-6v-18h-6zM1403 1369l1 1zM1286 1430
q-1 15 -1 29q-3 -11 -6 -21q4 -4 7 -8zM1487 1188q0 -30 -31 -90q-5 -25 -21 -41q-18 -43 -59 -89q-4 -6 -13 -14q-26 -28 -25 -26q-10 -15 -17 -28l-13 -31l-16 -26l-11 -12l-5 -10l-1 -1l-1 -2q-3 -4 -5 -4h-1l-1 1q-2 -2 -3 -2h-1q-1 1 -1 2q-2 -1 -3 -1h-1q-2 1 -2 5v3
l3 11l9 21q7 13 7 18v1q-2 5 -2 9q0 15 27 20l1 2v4q0 14 7 31q3 10 9 22q13 28 28 34q2 11 6 18q2 5 13 20q9 12 12 20q1 5 2 19q0 11 3 18v1q0 12 20 29l6 8q-7 2 -12 22l-3 18q-2 11 -3 16q-9 2 -17 13v-4q0 -20 -10 -20v0q-11 0 -25 18q0 -14 -8 -22q-6 -7 -15 -7v0
q-22 1 -22 31q-17 -21 -24 -21q-2 0 -4 2q-3 4 -6 40q-17 -21 -26 -21q-3 0 -5 2q-6 4 -6 20q0 7 2 17q-7 -7 -17 -7v0q-9 0 -16 6q-5 6 -5 12v2q2 8 14 14q-30 0 -38 8q5 6 16 7q13 1 17 4q4 1 8 6q-4 -2 -8 -2q-3 0 -5 2q-5 3 -5 13v3q-14 -19 -19 -19q-2 0 -2 3t2 14
q3 14 4 20q-25 -27 -25 -28q-1 2 -1 4q0 10 6 27q-20 -19 -28 -19q-5 0 -5 9q0 7 2 17q-13 -26 -25 -31v5q0 8 6 20q10 20 11 25q-6 -4 -16 -18q-9 -12 -16 -15v-1q2 0 7 42q-9 -9 -18 -9h-2q-9 1 -10 13q0 8 8 19q9 11 9 18q-18 -11 -25 -13q-5 -1 -9 -1q-7 0 -10 6
q-1 3 -1 7q0 8 9 18q10 12 22 14q-12 -2 -20 -2q-18 0 -19 11v2q0 9 12 15q3 2 11 5q6 2 9 4q-24 11 -24 17q0 1 1 2q2 1 35 12q-2 3 -8 7q-6 6 -9 8q-6 7 -6 13q0 3 1 6q2 1 5 1q8 0 18 -5t18 -5h3l-15 22q-4 7 -4 11q0 6 7 6h1q9 0 20 -13q14 -16 18 -18q-18 82 -23 82
l-1 -1q23 -12 49 -73q-10 31 -12 68q-1 6 -1 11q0 23 8 23q2 0 5 -1h-1v-1q0 -7 21 -58q3 -9 13 -35q10 -23 13 -36q-16 71 -16 115q0 51 21 65q10 -7 10 -31q0 -7 -1 -19t-1 -16q1 -15 6 -41q6 -30 7 -40q0 109 30 157q9 -4 9 -29q0 -14 -3 -35q-9 -67 -9 -74v-1q2 4 8 31
q8 32 14 51q20 61 37 61q2 0 3 -1q-1 -23 -20 -66q-19 -45 -22 -68q13 40 38 74q32 43 68 51q-1 -21 -60 -72q-35 -55 -35 -111v-13l1 -7q2 -13 8 -27q14 72 80 150q33 40 64 65h11q-42 -22 -78 -85q53 39 125 40l-3 -11q-122 -3 -147 -90q-7 -22 -7 -49q0 -39 15 -88
q4 -2 6 -4q11 -10 31 -58q0 8 8 15q8 6 16 6h2v-1l17 14q-11 -9 -14 -14h1q2 0 4 -1h1q7 4 7 9v-1q0 -3 -2 -6l6 4l-8 -6l1 -1l8 4l-7 -5h1q6 2 9 7q-2 -5 -7 -8l17 2q2 -1 2 -3v-1q-1 -2 -2 -2h-1h7t1 -1t-1 -3q3 0 3 -3v-3q6 0 8 -4v-2q0 -2 -3 -5q-6 -6 -6 -10v-1l4 -8
q3 -6 4 -9q5 -5 8 -9l1 1v-1q1 1 3 1q8 0 16 -10q10 -11 13 -28q1 -6 1 -12q0 -14 -6 -23q2 -12 2 -21v-2z" />
    <glyph glyph-name=".null" horiz-adv-x="2600" 
 />
    <glyph glyph-name=".null" horiz-adv-x="2600" 
 />
    <glyph glyph-name="nonmarkingreturn" horiz-adv-x="1187" 
 />
    <glyph glyph-name="space" unicode=" " horiz-adv-x="356" 
 />
    <glyph glyph-name="space" unicode="&#xa0;" horiz-adv-x="356" 
 />
    <glyph glyph-name="exclam" unicode="!" horiz-adv-x="504" 
d="M0 398v1003h318v-1003h-318zM315 1v302h-315v-302h315z" />
    <glyph glyph-name="quotedbl" unicode="&#x22;" horiz-adv-x="697" 
 />
    <glyph glyph-name="numbersign" unicode="#" horiz-adv-x="1004" 
 />
    <glyph glyph-name="dollar" unicode="$" horiz-adv-x="1126" 
 />
    <glyph glyph-name="percent" unicode="%" horiz-adv-x="1628" 
 />
    <glyph glyph-name="ampersand" unicode="&#x26;" horiz-adv-x="1187" 
 />
    <glyph glyph-name="quotesingle" unicode="'" horiz-adv-x="371" 
 />
    <glyph glyph-name="parenleft" unicode="(" horiz-adv-x="709" 
 />
    <glyph glyph-name="parenright" unicode=")" horiz-adv-x="709" 
 />
    <glyph glyph-name="asterisk" unicode="*" horiz-adv-x="571" 
 />
    <glyph glyph-name="plus" unicode="+" horiz-adv-x="804" 
 />
    <glyph glyph-name="comma" unicode="," horiz-adv-x="465" 
 />
    <glyph glyph-name="hyphen" unicode="-" horiz-adv-x="804" 
 />
    <glyph glyph-name="hyphen" unicode="&#xad;" horiz-adv-x="804" 
 />
    <glyph glyph-name="period" unicode="." horiz-adv-x="465" 
d="M315 1h-315v302h315v-302z" />
    <glyph glyph-name="slash" unicode="/" horiz-adv-x="865" 
 />
    <glyph glyph-name="zero" unicode="0" horiz-adv-x="1277" 
d="M624 1410v0q503 0 503 -710t-503 -710v0h-121v0q-503 0 -503 710t503 710v0h121zM581 1108h-35q-223 -2 -223 -328v-170q0 -321 232 -321h17q232 0 232 321v170q0 326 -223 328z" />
    <glyph glyph-name="one" unicode="1" horiz-adv-x="587" 
d="M224 5zM123 0h314v1178q0 222 -214 222l-5 2h-218v-306h123v-1096z" />
    <glyph glyph-name="two" unicode="2" horiz-adv-x="1208" 
d="M840 699l-413 -222q-67 -40 -67 -176h645v-300l-1005 -2v346q0 273 221 381l450 261q57 33 57 62q0 51 -57 52h-603v299h717q273 0 273 -337q0 -257 -218 -364z" />
    <glyph glyph-name="three" unicode="3" horiz-adv-x="1113" 
d="M883 699q37 -53 56.5 -124.5t19.5 -145.5q0 -173 -86 -294q-95 -135 -256 -135h-617v303h570q46 0 74 40q25 37 25 88t-24 85q-28 38 -75 38h-501v295h501q47 0 75 38q24 35 24 85q0 51 -24 89q-28 39 -75 39h-570v300h617q160 0 258 -139q88 -122 88 -297
q0 -76 -20 -144.5t-60 -120.5z" />
    <glyph glyph-name="four" unicode="4" horiz-adv-x="1268" 
d="M808 1096h-113q-32 0 -63.5 -22t-55.5 -59l-228 -352q-11 -17 -11 -38q0 -31 22 -53.5t61 -22.5h264v-297h-392q-130 0 -213 94q-79 88 -79 218q0 116 65 213l283 435q61 93 158 143q90 46 189 46h423v-1401h-310v1096z" />
    <glyph glyph-name="five" unicode="5" horiz-adv-x="1109" 
d="M299 848h318q342 0 342 -420q0 -172 -86 -293q-95 -135 -256 -135h-617v303h570q46 0 74 40q25 36 25 87t-24 85q-28 38 -75 38h-570v846h880v-299h-581v-252z" />
    <glyph glyph-name="six" unicode="6" horiz-adv-x="1262" 
d="M770 850h-476v127q0 47 24 84q28 39 75 39l592 -1v301h-639q-160 0 -258 -138q-88 -123 -88 -297v-536q0 -172 90 -294q95 -135 256 -135h424q161 0 256 135q86 122 86 294q0 421 -342 421zM723 554q47 0 75 -38q24 -35 24 -85q0 -51 -24 -88q-28 -39 -75 -39h-330
q-47 0 -75 39q-24 37 -24 84v127h429z" />
    <glyph glyph-name="seven" unicode="7" horiz-adv-x="1145" 
d="M826 1399h-826v-297h580l-458 -1102h334l478 1105q61 150 18 222t-126 72z" />
    <glyph glyph-name="eight" unicode="8" horiz-adv-x="1266" 
d="M346 1400q-160 0 -258 -138q-88 -123 -88 -297q0 -75 20 -145q20 -68 60 -121q-37 -54 -56 -124q-20 -71 -20 -146q0 -172 86 -294q95 -135 256 -135h424q161 0 256 135q86 122 86 294q0 75 -20 146q-19 70 -56 124q40 53 60 121q20 70 20 145q0 174 -88 297
q-98 138 -258 138h-424zM393 850q-47 0 -75 38q-24 35 -24 85q0 51 24 88q28 39 75 39h330q47 0 75 -39q24 -37 24 -88q0 -50 -24 -85q-28 -38 -75 -38h-330zM393 304q-46 0 -74 40q-25 36 -25 87t24 85q28 38 75 38h330q47 0 75 -38q24 -34 24 -85t-25 -87q-28 -40 -74 -40
h-330z" />
    <glyph glyph-name="nine" unicode="9" horiz-adv-x="1262" 
d="M342 550h476v-127q0 -47 -24 -84q-28 -39 -75 -39l-592 1v-301h639q160 0 258 138q88 123 88 297v536q0 172 -90 294q-95 135 -256 135h-424q-161 0 -256 -135q-86 -122 -86 -294q0 -421 342 -421zM389 846q-47 0 -75 38q-24 35 -24 85q0 51 24 88q28 39 75 39h330
q47 0 75 -39q24 -37 24 -84v-127h-429z" />
    <glyph glyph-name="colon" unicode=":" horiz-adv-x="465" 
 />
    <glyph glyph-name="semicolon" unicode=";" horiz-adv-x="465" 
 />
    <glyph glyph-name="semicolon" unicode="&#x37e;" horiz-adv-x="465" 
 />
    <glyph glyph-name="less" unicode="&#x3c;" horiz-adv-x="939" 
 />
    <glyph glyph-name="equal" unicode="=" horiz-adv-x="864" 
 />
    <glyph glyph-name="greater" unicode="&#x3e;" horiz-adv-x="939" 
 />
    <glyph glyph-name="question" unicode="?" horiz-adv-x="1050" 
 />
    <glyph glyph-name="at" unicode="@" horiz-adv-x="953" 
 />
    <glyph glyph-name="A" unicode="A" horiz-adv-x="1417" 
d="M630 809l-309 -808h-321l495 1321q18 39 54 63q36 23 80 23q43 0 81 -23q38 -24 55 -63l502 -1322h-322z" />
    <glyph glyph-name="B" unicode="B" horiz-adv-x="1162" 
d="M429 300v-299h297q286 0 286 256q0 73 -81 194l-191 248l191 248q81 121 81 194q0 259 -286 259h-726v-1399h315v1097h356l-232 -285q-37 -55 -40 -98v-26q0 -45 40 -104l232 -285h-242z" />
    <glyph glyph-name="C" unicode="C" horiz-adv-x="1134" 
d="M544 1400h440v-302h-299q-362 2 -362 -328v-150q0 -321 362 -321h299v-299h-440q-544 0 -544 700t544 700z" />
    <glyph glyph-name="D" unicode="D" horiz-adv-x="1269" 
d="M427 304v-304h157q535 1 535 697q0 705 -535 705l-584 -1v-1401h313v565h2v540h221q254 0 254 -399q0 -402 -254 -402h-109z" />
    <glyph glyph-name="E" unicode="E" 
d="M908 0h-643q-265 0 -265 285v862q0 253 265 253h643v-301h-584v-251h485v-298h-485v-248h584v-302z" />
    <glyph glyph-name="F" unicode="F" 
d="M0 1v1146q0 253 265 253h643v-301h-584v-291h485v-298h-485v-509h-324z" />
    <glyph glyph-name="G" unicode="G" horiz-adv-x="1164" 
d="M697 299v379h317v-678h-470q-544 0 -544 700t544 700h470v-302h-329q-362 0 -362 -328v-150q0 -321 348 -321h26z" />
    <glyph glyph-name="H" unicode="H" horiz-adv-x="1174" 
d="M317 540v-545h-317v1406h317v-559h390v559h317v-1406h-317v545h-390z" />
    <glyph glyph-name="I" unicode="I" horiz-adv-x="467" 
d="M0 -5v1406h317v-1406h-317z" />
    <glyph glyph-name="J" unicode="J" horiz-adv-x="884" 
d="M0 0l160 -2q176 0 285.5 44.5t174.5 118.5t89.5 182.5t24.5 369.5v687h-300v-695q0 -173 -13 -239t-78 -117t-192 -51l-151 -1v-297z" />
    <glyph glyph-name="K" unicode="K" horiz-adv-x="1353" 
d="M0 1400h328v-1400h-328v1400zM804 0h386l-420 703l433 697h-391l-358 -604q-22 -40 -22 -91q0 -50 21 -90z" />
    <glyph glyph-name="L" unicode="L" 
d="M324 1400v-1098h584v-302h-643q-265 0 -265 285v1115h324z" />
    <glyph glyph-name="M" unicode="M" horiz-adv-x="1409" 
d="M1007 1393q-49 -22 -72 -67l-305 -633l-306 641q-24 45 -73 67q-79 21 -131 10q-53 -12 -86 -52q-34 -39 -34 -90v-1269h310v640l184 -402q20 -37 58 -59t81 -22q45 0 82 22q38 22 57 60l177 401v-640h310v1261q0 51 -34 91t-86 51q-53 12 -132 -10z" />
    <glyph glyph-name="N" unicode="N" horiz-adv-x="1241" 
d="M777 1402v-737l-493 691q-31 41 -79 56q-49 16 -97 0t-78 -57q-30 -42 -30 -92v-1264h314v745l494 -692q30 -41 78 -56q49 -16 97 0q49 16 78 57q30 41 30 92v1257h-314z" />
    <glyph glyph-name="O" unicode="O" horiz-adv-x="1377" 
d="M724 1410v0q503 0 503 -710t-503 -710v0h-221v0q-503 0 -503 710t503 710v0h221zM631 1108h-35q-273 -2 -273 -328v-170q0 -321 282 -321h17q282 0 282 321v170q0 326 -273 328z" />
    <glyph glyph-name="P" unicode="P" horiz-adv-x="1219" 
d="M433 727v-304h141q495 0 495 489t-495 489h-574v-1402h317v1105h209q214 0 214 -188q0 -189 -214 -189h-93z" />
    <glyph glyph-name="Q" unicode="Q" horiz-adv-x="1377" 
d="M631 1108h-35q-273 -2 -273 -328v-170q0 -321 282 -321h17q282 0 282 321v170q0 326 -273 328zM237 72q-237 159 -237 628q0 710 503 710v0h221v0q503 0 503 -710q0 -47 -2 -92q-33 -593 -501 -617v-1h-120q2 -1 58 -32.5t122 -39.5q10 -1 18 -1q68 -4 137 19
q59 19 91 42.5t36 26.5l1 -334q-62 -17 -108 -28q-87 -20 -171 -15q-132 6 -254 71q-83 49 -117 63q-95 52 -256 -39v332z" />
    <glyph glyph-name="R" unicode="R" horiz-adv-x="1292" 
d="M315 1110v-1110h-314l-1 1401h734q156 2 254 -91q99 -94 97 -259q-2 -155 -113 -267l-123 -145q-32 -43 -9 -98l302 -541h-384l-233 456q-83 170 0 270l230 276q29 34 29 71t-47 37h-422z" />
    <glyph glyph-name="S" unicode="S" horiz-adv-x="1255" 
d="M81 0h598q46 0 83 8q96 17 170 69q88 62 130 166q43 103 30 220q-7 244 -218 324l-456 105q-64 22 -64 114q0 91 97 91h538v304h-551q-41 -4 -81 -11q-117 -20 -188 -70q-80 -60 -125 -148q-44 -88 -43 -187q1 -105 49 -195q48 -91 132 -147q57 -39 141 -60l355 -71
q64 -18 64 -113t-96 -95h-565v-304z" />
    <glyph glyph-name="T" unicode="T" horiz-adv-x="1110" 
d="M325 -1v1098h-325v303h960v-303h-309v-1098h-326z" />
    <glyph glyph-name="U" unicode="U" horiz-adv-x="1257" 
d="M323 1400v-787q0 -321 222 -321h17q222 0 222 321v787h323v-787q0 -620 -443 -620h-221q-443 0 -443 620l1 787h322z" />
    <glyph glyph-name="V" unicode="V" horiz-adv-x="1417" 
d="M945 1398l-315 -809l-309 808h-321l495 -1321q18 -39 54 -63q36 -23 80 -23q43 0 81 23q38 24 55 63l502 1322h-322z" />
    <glyph glyph-name="W" unicode="W" horiz-adv-x="1950" 
d="M1474 1401l-204 -733l-236 608q-15 46 -52 74t-81 28q-45 0 -83 -28q-37 -28 -52 -74l-236 -608l-204 732h-326l386 -1303q14 -48 51 -77q38 -30 84 -30q45 0 83 28t54 74l242 679l242 -679q16 -46 52 -74q37 -28 82 -28q46 0 85 30t53 77l386 1304h-326z" />
    <glyph glyph-name="X" unicode="X" horiz-adv-x="1350" 
d="M0 0l338 634q45 89 8 174l-310 592h356l212 -415l208 415h353l-307 -592q-42 -85 4 -174l338 -634h-364l-237 449l-236 -449h-363z" />
    <glyph glyph-name="Y" unicode="Y" horiz-adv-x="1129" 
d="M0 726q0 -255 268 -255h394v-167h-536v-306h631l5 2q217 0 214 222v1178h-314v-636h-360v636h-302v-674z" />
    <glyph glyph-name="Z" unicode="Z" horiz-adv-x="1086" 
d="M907 1165q24 35 27 76q2 42 -17 78q-19 37 -55 59q-36 21 -77 21h-784v-298h499l-472 -866q-23 -34 -26 -76q-2 -41 17 -78t55 -58q36 -22 77 -22h785v299h-500z" />
    <glyph glyph-name="bracketleft" unicode="[" horiz-adv-x="648" 
 />
    <glyph glyph-name="backslash" unicode="\" horiz-adv-x="865" 
 />
    <glyph glyph-name="bracketright" unicode="]" horiz-adv-x="648" 
 />
    <glyph glyph-name="asciicircum" unicode="^" horiz-adv-x="746" 
 />
    <glyph glyph-name="underscore" unicode="_" horiz-adv-x="908" 
 />
    <glyph glyph-name="grave" unicode="`" horiz-adv-x="579" 
 />
    <glyph glyph-name="a" unicode="a" horiz-adv-x="1417" 
d="M401 209l-80 -208h-321l495 1321q18 39 54 63q36 23 80 23q43 0 81 -23q38 -24 55 -63l502 -1322h-322l-81 209h-463zM746 512l-116 297l-114 -297h230z" />
    <glyph glyph-name="b" unicode="b" horiz-adv-x="1162" 
d="M399 689q0 -45 40 -104l232 -285h-360v798h360l-232 -285q-37 -55 -40 -98v-26zM931 947q81 121 81 194q0 259 -286 259h-726v-1399h726q286 0 286 256q0 73 -81 194l-191 248z" />
    <glyph glyph-name="c" unicode="c" horiz-adv-x="1134" 
d="M544 1400h440v-302h-299q-362 2 -362 -328v-150q0 -321 362 -321h299v-299h-440q-544 0 -544 700t544 700z" />
    <glyph glyph-name="d" unicode="d" horiz-adv-x="1269" 
d="M536 304h-221v801h221q254 0 254 -399q0 -402 -254 -402zM584 1402l-584 -1v-1401h584q535 1 535 697q0 705 -535 705z" />
    <glyph glyph-name="e" unicode="e" 
d="M908 0h-643q-265 0 -265 285v862q0 253 265 253h643v-301h-584v-251h485v-298h-485v-248h584v-302z" />
    <glyph glyph-name="f" unicode="f" 
d="M0 1v1146q0 253 265 253h643v-301h-584v-291h485v-298h-485v-509h-324z" />
    <glyph glyph-name="g" unicode="g" horiz-adv-x="1164" 
d="M697 299v379h317v-678h-470q-544 0 -544 700t544 700h470v-302h-329q-362 0 -362 -328v-150q0 -321 348 -321h26z" />
    <glyph glyph-name="h" unicode="h" horiz-adv-x="1174" 
d="M317 540v-545h-317v1406h317v-559h390v559h317v-1406h-317v545h-390z" />
    <glyph glyph-name="i" unicode="i" horiz-adv-x="467" 
d="M0 -5v1406h317v-1406h-317z" />
    <glyph glyph-name="j" unicode="j" horiz-adv-x="884" 
d="M0 0l160 -2q176 0 285.5 44.5t174.5 118.5t89.5 182.5t24.5 369.5v687h-300v-695q0 -173 -13 -239t-78 -117t-192 -51l-151 -1v-297z" />
    <glyph glyph-name="k" unicode="k" horiz-adv-x="1353" 
d="M0 1400h328v-1400h-328v1400zM804 0h386l-420 703l433 697h-391l-358 -604q-22 -40 -22 -91q0 -50 21 -90z" />
    <glyph glyph-name="l" unicode="l" horiz-adv-x="1031" 
d="M324 1400v-1098h584v-302h-643q-265 0 -265 285v1115h324z" />
    <glyph glyph-name="m" unicode="m" horiz-adv-x="1409" 
d="M1007 1393q-49 -22 -72 -67l-305 -633l-306 641q-24 45 -73 67q-79 21 -131 10q-53 -12 -86 -52q-34 -39 -34 -90v-1269h310v640l184 -402q20 -37 58 -59t81 -22q45 0 82 22q38 22 57 60l177 401v-640h310v1261q0 51 -34 91t-86 51q-53 12 -132 -10z" />
    <glyph glyph-name="n" unicode="n" horiz-adv-x="1241" 
d="M777 1402v-737l-493 691q-31 41 -79 56q-49 16 -97 0t-78 -57q-30 -42 -30 -92v-1264h314v745l494 -692q30 -41 78 -56q49 -16 97 0q49 16 78 57q30 41 30 92v1257h-314z" />
    <glyph glyph-name="o" unicode="o" horiz-adv-x="1321" 
d="M724 1410v0q503 0 503 -710t-503 -710v0h-221v0q-503 0 -503 710t503 710v0h221zM631 1108h-35q-273 -2 -273 -328v-170q0 -321 282 -321h17q282 0 282 321v170q0 326 -273 328z" />
    <glyph glyph-name="p" unicode="p" horiz-adv-x="1219" 
d="M0 1401v-1402h317v424h257q495 0 495 489t-495 489h-574zM526 1104q214 0 214 -188q0 -189 -214 -189h-209v377h209z" />
    <glyph glyph-name="q" unicode="q" horiz-adv-x="1377" 
d="M631 1108h-35q-273 -2 -273 -328v-170q0 -321 282 -321h17q282 0 282 321v170q0 326 -273 328zM237 72q-237 159 -237 628q0 710 503 710v0h221v0q503 0 503 -710q0 -47 -2 -92q-33 -593 -501 -617v-1h-120q2 -1 58 -32.5t122 -39.5q10 -1 18 -1q68 -4 137 19
q59 19 91 42.5t36 26.5l1 -334q-62 -17 -108 -28q-87 -20 -171 -15q-132 6 -254 71q-83 49 -117 63q-95 52 -256 -39v332z" />
    <glyph glyph-name="r" unicode="r" horiz-adv-x="1292" 
d="M315 1110v-1110h-314l-1 1401h734q156 2 254 -91q99 -94 97 -259q-2 -155 -113 -267l-123 -145q-32 -43 -9 -98l302 -541h-384l-233 456q-83 170 0 270l230 276q29 34 29 71t-47 37h-422z" />
    <glyph glyph-name="s" unicode="s" horiz-adv-x="1255" 
d="M81 0h598q46 0 83 8q96 17 170 69q88 62 130 166q43 103 30 220q-7 244 -218 324l-456 105q-64 22 -64 114q0 91 97 91h538v304h-551q-41 -4 -81 -11q-117 -20 -188 -70q-80 -60 -125 -148q-44 -88 -43 -187q1 -105 49 -195q48 -91 132 -147q57 -39 141 -60l355 -71
q64 -18 64 -113t-96 -95h-565v-304z" />
    <glyph glyph-name="t" unicode="t" horiz-adv-x="1110" 
d="M325 -1v1098h-325v303h960v-303h-309v-1098h-326z" />
    <glyph glyph-name="u" unicode="u" horiz-adv-x="1257" 
d="M323 1400v-787q0 -321 222 -321h17q222 0 222 321v787h323v-787q0 -620 -443 -620h-221q-443 0 -443 620l1 787h322z" />
    <glyph glyph-name="v" unicode="v" horiz-adv-x="1417" 
d="M945 1398l-315 -809l-309 809h-321l495 -1322q18 -39 54 -63q36 -23 80 -23q43 0 81 23q38 24 55 63l502 1322h-322z" />
    <glyph glyph-name="w" unicode="w" horiz-adv-x="1950" 
d="M1474 1401l-204 -733l-236 608q-15 46 -52 74t-81 28q-45 0 -83 -28q-37 -28 -52 -74l-236 -608l-204 732h-326l386 -1303q14 -48 51 -77q38 -30 84 -30q45 0 83 28t54 74l242 679l242 -679q16 -46 52 -74q37 -28 82 -28q46 0 85 30t53 77l386 1304h-326z" />
    <glyph glyph-name="x" unicode="x" horiz-adv-x="1350" 
d="M0 0l338 634q45 89 8 174l-310 592h356l212 -415l208 415h353l-307 -592q-42 -85 4 -174l338 -634h-364l-237 449l-236 -449h-363z" />
    <glyph glyph-name="y" unicode="y" horiz-adv-x="1129" 
d="M0 726q0 -255 268 -255h394v-167h-536v-306h631l5 2q217 0 214 222v1178h-314v-636h-360v636h-302v-674z" />
    <glyph glyph-name="z" unicode="z" horiz-adv-x="1086" 
d="M907 1165q24 35 27 76q2 42 -17 78q-19 37 -55 59q-36 21 -77 21h-784v-298h499l-472 -866q-23 -34 -26 -76q-2 -41 17 -78t55 -58q36 -22 77 -22h785v299h-500z" />
    <glyph glyph-name="braceleft" unicode="{" horiz-adv-x="725" 
 />
    <glyph glyph-name="bar" unicode="|" horiz-adv-x="446" 
 />
    <glyph glyph-name="braceright" unicode="}" horiz-adv-x="725" 
 />
    <glyph glyph-name="asciitilde" unicode="~" horiz-adv-x="1145" 
 />
    <glyph glyph-name="exclamdown" unicode="&#xa1;" horiz-adv-x="504" 
 />
    <glyph glyph-name="cent" unicode="&#xa2;" horiz-adv-x="1004" 
 />
    <glyph glyph-name="sterling" unicode="&#xa3;" horiz-adv-x="981" 
 />
    <glyph glyph-name="currency" unicode="&#xa4;" horiz-adv-x="1176" 
 />
    <glyph glyph-name="yen" unicode="&#xa5;" horiz-adv-x="1395" 
 />
    <glyph glyph-name="brokenbar" unicode="&#xa6;" horiz-adv-x="446" 
 />
    <glyph glyph-name="section" unicode="&#xa7;" horiz-adv-x="781" 
 />
    <glyph glyph-name="dieresis" unicode="&#xa8;" horiz-adv-x="842" 
 />
    <glyph glyph-name="copyright" unicode="&#xa9;" horiz-adv-x="1088" 
 />
    <glyph glyph-name="ordfeminine" unicode="&#xaa;" horiz-adv-x="706" 
 />
    <glyph glyph-name="guillemotleft" unicode="&#xab;" horiz-adv-x="1017" 
 />
    <glyph glyph-name="logicalnot" unicode="&#xac;" horiz-adv-x="1254" 
 />
    <glyph glyph-name="registered" unicode="&#xae;" horiz-adv-x="1088" 
 />
    <glyph glyph-name="macron" unicode="&#xaf;" horiz-adv-x="710" 
 />
    <glyph glyph-name="degree" unicode="&#xb0;" horiz-adv-x="524" 
 />
    <glyph glyph-name="plusminus" unicode="&#xb1;" horiz-adv-x="804" 
 />
    <glyph glyph-name="uni00B2" unicode="&#xb2;" horiz-adv-x="679" 
 />
    <glyph glyph-name="uni00B3" unicode="&#xb3;" horiz-adv-x="631" 
 />
    <glyph glyph-name="acute" unicode="&#xb4;" horiz-adv-x="579" 
 />
    <glyph glyph-name="mu" unicode="&#xb5;" horiz-adv-x="1257" 
 />
    <glyph glyph-name="paragraph" unicode="&#xb6;" horiz-adv-x="869" 
 />
    <glyph glyph-name="periodcentered" unicode="&#xb7;" horiz-adv-x="464" 
 />
    <glyph glyph-name="periodcentered" unicode="&#x2219;" horiz-adv-x="464" 
 />
    <glyph glyph-name="cedilla" unicode="&#xb8;" horiz-adv-x="615" 
 />
    <glyph glyph-name="uni00B9" unicode="&#xb9;" horiz-adv-x="368" 
 />
    <glyph glyph-name="ordmasculine" unicode="&#xba;" horiz-adv-x="763" 
 />
    <glyph glyph-name="guillemotright" unicode="&#xbb;" horiz-adv-x="1017" 
 />
    <glyph glyph-name="onequarter" unicode="&#xbc;" horiz-adv-x="1254" 
 />
    <glyph glyph-name="onehalf" unicode="&#xbd;" horiz-adv-x="1293" 
 />
    <glyph glyph-name="threequarters" unicode="&#xbe;" horiz-adv-x="1419" 
 />
    <glyph glyph-name="questiondown" unicode="&#xbf;" horiz-adv-x="1050" 
 />
    <glyph glyph-name="Agrave" unicode="&#xc0;" horiz-adv-x="1417" 
 />
    <glyph glyph-name="Aacute" unicode="&#xc1;" horiz-adv-x="1417" 
 />
    <glyph glyph-name="Acircumflex" unicode="&#xc2;" horiz-adv-x="1417" 
 />
    <glyph glyph-name="Atilde" unicode="&#xc3;" horiz-adv-x="1417" 
 />
    <glyph glyph-name="Adieresis" unicode="&#xc4;" horiz-adv-x="1417" 
 />
    <glyph glyph-name="Aring" unicode="&#xc5;" horiz-adv-x="1417" 
 />
    <glyph glyph-name="AE" unicode="&#xc6;" horiz-adv-x="1832" 
d="M779 1092q-86 0 -117 -81l-345 -1011h-317l434 1208q70 193 347 193l901 -1v-301h-584v-251h485v-298h-485v-248h584v-302h-903v1092z" />
    <glyph glyph-name="Ccedilla" unicode="&#xc7;" horiz-adv-x="1134" 
 />
    <glyph glyph-name="Egrave" unicode="&#xc8;" 
 />
    <glyph glyph-name="Eacute" unicode="&#xc9;" 
 />
    <glyph glyph-name="Ecircumflex" unicode="&#xca;" 
 />
    <glyph glyph-name="Edieresis" unicode="&#xcb;" 
 />
    <glyph glyph-name="Igrave" unicode="&#xcc;" horiz-adv-x="467" 
 />
    <glyph glyph-name="Iacute" unicode="&#xcd;" horiz-adv-x="467" 
 />
    <glyph glyph-name="Icircumflex" unicode="&#xce;" horiz-adv-x="467" 
 />
    <glyph glyph-name="Idieresis" unicode="&#xcf;" horiz-adv-x="467" 
 />
    <glyph glyph-name="Eth" unicode="&#xd0;" horiz-adv-x="1273" 
 />
    <glyph glyph-name="Ntilde" unicode="&#xd1;" horiz-adv-x="1241" 
 />
    <glyph glyph-name="Ograve" unicode="&#xd2;" horiz-adv-x="1377" 
 />
    <glyph glyph-name="Oacute" unicode="&#xd3;" horiz-adv-x="1377" 
 />
    <glyph glyph-name="Ocircumflex" unicode="&#xd4;" horiz-adv-x="1377" 
 />
    <glyph glyph-name="Otilde" unicode="&#xd5;" horiz-adv-x="1377" 
 />
    <glyph glyph-name="Odieresis" unicode="&#xd6;" horiz-adv-x="1377" 
 />
    <glyph glyph-name="multiply" unicode="&#xd7;" horiz-adv-x="858" 
 />
    <glyph glyph-name="Oslash" unicode="&#xd8;" horiz-adv-x="1377" 
 />
    <glyph glyph-name="Ugrave" unicode="&#xd9;" horiz-adv-x="1257" 
 />
    <glyph glyph-name="Uacute" unicode="&#xda;" horiz-adv-x="1257" 
 />
    <glyph glyph-name="Ucircumflex" unicode="&#xdb;" horiz-adv-x="1257" 
 />
    <glyph glyph-name="Udieresis" unicode="&#xdc;" horiz-adv-x="1257" 
 />
    <glyph glyph-name="Yacute" unicode="&#xdd;" horiz-adv-x="1129" 
 />
    <glyph glyph-name="Thorn" unicode="&#xde;" horiz-adv-x="1269" 
 />
    <glyph glyph-name="germandbls" unicode="&#xdf;" horiz-adv-x="1359" 
d="M470 1402q-470 -15 -470 -439v-963h305v898q0 202 165 202h246q47 0 75 -39q24 -38 24 -89q0 -50 -24 -85q-28 -38 -75 -38h-173v-295h173q47 0 75 -38q24 -35 24 -85q0 -52 -25 -88q-28 -40 -74 -40h-292v-303h339q161 0 256 135q86 121 86 294q0 71 -19 145
q-20 72 -57 125q40 53 60 120t20 145q0 174 -88 297q-99 139 -258 139h-293v2z" />
    <glyph glyph-name="agrave" unicode="&#xe0;" horiz-adv-x="1417" 
 />
    <glyph glyph-name="aacute" unicode="&#xe1;" horiz-adv-x="1417" 
 />
    <glyph glyph-name="acircumflex" unicode="&#xe2;" horiz-adv-x="1417" 
 />
    <glyph glyph-name="atilde" unicode="&#xe3;" horiz-adv-x="1417" 
 />
    <glyph glyph-name="adieresis" unicode="&#xe4;" horiz-adv-x="1417" 
 />
    <glyph glyph-name="aring" unicode="&#xe5;" horiz-adv-x="1417" 
 />
    <glyph glyph-name="ae" unicode="&#xe6;" horiz-adv-x="1832" 
d="M1682 1400v-301h-584v-251h485v-298h-485v-248h584v-302h-903v214h-389l-73 -214h-317l434 1208q70 193 347 193zM774 507v585q-81 0 -112 -81l-172 -504h284z" />
    <glyph glyph-name="ccedilla" unicode="&#xe7;" horiz-adv-x="1134" 
 />
    <glyph glyph-name="egrave" unicode="&#xe8;" 
 />
    <glyph glyph-name="eacute" unicode="&#xe9;" 
 />
    <glyph glyph-name="ecircumflex" unicode="&#xea;" horiz-adv-x="1377" 
 />
    <glyph glyph-name="edieresis" unicode="&#xeb;" 
 />
    <glyph glyph-name="igrave" unicode="&#xec;" horiz-adv-x="467" 
 />
    <glyph glyph-name="iacute" unicode="&#xed;" horiz-adv-x="467" 
 />
    <glyph glyph-name="icircumflex" unicode="&#xee;" horiz-adv-x="467" 
 />
    <glyph glyph-name="idieresis" unicode="&#xef;" horiz-adv-x="467" 
 />
    <glyph glyph-name="eth" unicode="&#xf0;" horiz-adv-x="1273" 
 />
    <glyph glyph-name="ntilde" unicode="&#xf1;" horiz-adv-x="1241" 
 />
    <glyph glyph-name="ograve" unicode="&#xf2;" horiz-adv-x="1377" 
 />
    <glyph glyph-name="oacute" unicode="&#xf3;" horiz-adv-x="1377" 
 />
    <glyph glyph-name="ocircumflex" unicode="&#xf4;" horiz-adv-x="1377" 
 />
    <glyph glyph-name="otilde" unicode="&#xf5;" horiz-adv-x="1377" 
 />
    <glyph glyph-name="odieresis" unicode="&#xf6;" horiz-adv-x="1377" 
 />
    <glyph glyph-name="divide" unicode="&#xf7;" horiz-adv-x="1146" 
 />
    <glyph glyph-name="oslash" unicode="&#xf8;" horiz-adv-x="1377" 
 />
    <glyph glyph-name="ugrave" unicode="&#xf9;" horiz-adv-x="1257" 
 />
    <glyph glyph-name="uacute" unicode="&#xfa;" horiz-adv-x="1257" 
 />
    <glyph glyph-name="ucircumflex" unicode="&#xfb;" horiz-adv-x="1257" 
 />
    <glyph glyph-name="udieresis" unicode="&#xfc;" horiz-adv-x="1257" 
 />
    <glyph glyph-name="yacute" unicode="&#xfd;" horiz-adv-x="1129" 
 />
    <glyph glyph-name="thorn" unicode="&#xfe;" horiz-adv-x="1269" 
 />
    <glyph glyph-name="ydieresis" unicode="&#xff;" horiz-adv-x="1129" 
 />
    <glyph glyph-name="dotlessi" unicode="&#x131;" horiz-adv-x="467" 
 />
    <glyph glyph-name="circumflex" unicode="&#x2c6;" horiz-adv-x="748" 
 />
    <glyph glyph-name="caron" unicode="&#x2c7;" horiz-adv-x="748" 
 />
    <glyph glyph-name="uni02C9" unicode="&#x2c9;" horiz-adv-x="710" 
 />
    <glyph glyph-name="breve" unicode="&#x2d8;" horiz-adv-x="777" 
 />
    <glyph glyph-name="dotaccent" unicode="&#x2d9;" horiz-adv-x="354" 
 />
    <glyph glyph-name="ring" unicode="&#x2da;" horiz-adv-x="524" 
 />
    <glyph glyph-name="ogonek" unicode="&#x2db;" horiz-adv-x="513" 
 />
    <glyph glyph-name="tilde" unicode="&#x2dc;" horiz-adv-x="925" 
 />
    <glyph glyph-name="hungarumlaut" unicode="&#x2dd;" horiz-adv-x="877" 
 />
    <glyph glyph-name="endash" unicode="&#x2013;" horiz-adv-x="954" 
 />
    <glyph glyph-name="emdash" unicode="&#x2014;" horiz-adv-x="1412" 
 />
    <glyph glyph-name="quoteleft" unicode="&#x2018;" horiz-adv-x="465" 
 />
    <glyph glyph-name="quoteright" unicode="&#x2019;" horiz-adv-x="465" 
 />
    <glyph glyph-name="quotesinglbase" unicode="&#x201a;" horiz-adv-x="465" 
 />
    <glyph glyph-name="quotedblleft" unicode="&#x201c;" horiz-adv-x="728" 
 />
    <glyph glyph-name="quotedblright" unicode="&#x201d;" horiz-adv-x="728" 
 />
    <glyph glyph-name="quotedblbase" unicode="&#x201e;" horiz-adv-x="728" 
 />
    <glyph glyph-name="dagger" unicode="&#x2020;" horiz-adv-x="700" 
 />
    <glyph glyph-name="daggerdbl" unicode="&#x2021;" horiz-adv-x="700" 
 />
    <glyph glyph-name="bullet" unicode="&#x2022;" horiz-adv-x="577" 
 />
    <glyph glyph-name="ellipsis" unicode="&#x2026;" horiz-adv-x="2048" 
 />
    <glyph glyph-name="guilsinglleft" unicode="&#x2039;" horiz-adv-x="616" 
 />
    <glyph glyph-name="guilsinglright" unicode="&#x203a;" horiz-adv-x="616" 
 />
    <glyph glyph-name="fraction" unicode="&#x2044;" horiz-adv-x="899" 
 />
    <glyph glyph-name="fraction" unicode="&#x2215;" horiz-adv-x="899" 
 />
    <glyph glyph-name="franc" unicode="&#x20a3;" horiz-adv-x="1088" 
 />
    <glyph glyph-name="lira" unicode="&#x20a4;" 
 />
    <glyph glyph-name="Euro" unicode="&#x20ac;" horiz-adv-x="954" 
 />
    <glyph glyph-name="uni2116" unicode="&#x2116;" horiz-adv-x="1944" 
 />
    <glyph glyph-name="trademark" unicode="&#x2122;" horiz-adv-x="1149" 
 />
    <glyph glyph-name="partialdiff" unicode="&#x2202;" horiz-adv-x="1385" 
 />
    <glyph glyph-name="Delta" unicode="&#x2206;" horiz-adv-x="1279" 
 />
    <glyph glyph-name="product" unicode="&#x220f;" horiz-adv-x="1248" 
 />
    <glyph glyph-name="summation" unicode="&#x2211;" horiz-adv-x="993" 
 />
    <glyph glyph-name="minus" unicode="&#x2212;" horiz-adv-x="954" 
 />
    <glyph glyph-name="radical" unicode="&#x221a;" horiz-adv-x="1275" 
 />
    <glyph glyph-name="integral" unicode="&#x222b;" horiz-adv-x="400" 
 />
    <glyph glyph-name="approxequal" unicode="&#x2248;" horiz-adv-x="1146" 
 />
    <glyph glyph-name="lessequal" unicode="&#x2264;" horiz-adv-x="953" 
 />
    <glyph glyph-name="greaterequal" unicode="&#x2265;" horiz-adv-x="953" 
 />
    <glyph glyph-name="uniF001" unicode="&#xf001;" horiz-adv-x="1525" 
 />
    <glyph glyph-name="uniF001" unicode="&#xfb01;" horiz-adv-x="1525" 
 />
    <glyph glyph-name="uniF002" unicode="&#xf002;" horiz-adv-x="2116" 
 />
    <glyph glyph-name="uniF002" unicode="&#xfb02;" horiz-adv-x="2116" 
 />
    <glyph glyph-name="alt_ampersand" horiz-adv-x="1286" 
 />
    <glyph glyph-name="alt_4" horiz-adv-x="1268" 
 />
    <glyph glyph-name="Amacron" unicode="&#x100;" horiz-adv-x="1417" 
 />
    <glyph glyph-name="Abreve" unicode="&#x102;" horiz-adv-x="1417" 
 />
    <glyph glyph-name="Aogonek" unicode="&#x104;" horiz-adv-x="1417" 
 />
    <glyph glyph-name="Cacute" unicode="&#x106;" horiz-adv-x="1134" 
 />
    <glyph glyph-name="Ccircumflex" unicode="&#x108;" horiz-adv-x="1134" 
 />
    <glyph glyph-name="Cdotaccent" unicode="&#x10a;" horiz-adv-x="1134" 
 />
    <glyph glyph-name="Ccaron" unicode="&#x10c;" horiz-adv-x="1134" 
 />
    <glyph glyph-name="Dcaron" unicode="&#x10e;" horiz-adv-x="1269" 
 />
    <glyph glyph-name="Dcroat" unicode="&#x110;" horiz-adv-x="1273" 
 />
    <glyph glyph-name="Emacron" unicode="&#x112;" 
 />
    <glyph glyph-name="Ebreve" unicode="&#x114;" 
 />
    <glyph glyph-name="Edotaccent" unicode="&#x116;" 
 />
    <glyph glyph-name="Eogonek" unicode="&#x118;" 
 />
    <glyph glyph-name="Ecaron" unicode="&#x11a;" 
 />
    <glyph glyph-name="Gcircumflex" unicode="&#x11c;" horiz-adv-x="1164" 
 />
    <glyph glyph-name="Gbreve" unicode="&#x11e;" horiz-adv-x="1164" 
 />
    <glyph glyph-name="Gdotaccent" unicode="&#x120;" horiz-adv-x="1164" 
 />
    <glyph glyph-name="uni0122" unicode="&#x122;" horiz-adv-x="1164" 
 />
    <glyph glyph-name="Hcircumflex" unicode="&#x124;" horiz-adv-x="1174" 
 />
    <glyph glyph-name="Hbar" unicode="&#x126;" horiz-adv-x="1210" 
 />
    <glyph glyph-name="Itilde" unicode="&#x128;" horiz-adv-x="467" 
 />
    <glyph glyph-name="Imacron" unicode="&#x12a;" horiz-adv-x="467" 
 />
    <glyph glyph-name="Ibreve" unicode="&#x12c;" horiz-adv-x="467" 
 />
    <glyph glyph-name="Iogonek" unicode="&#x12e;" horiz-adv-x="467" 
 />
    <glyph glyph-name="Idotaccent" unicode="&#x130;" horiz-adv-x="467" 
 />
    <glyph glyph-name="IJ" unicode="&#x132;" horiz-adv-x="1351" 
 />
    <glyph glyph-name="Jcircumflex" unicode="&#x134;" horiz-adv-x="884" 
 />
    <glyph glyph-name="uni0136" unicode="&#x136;" horiz-adv-x="1353" 
 />
    <glyph glyph-name="Lacute" unicode="&#x139;" 
 />
    <glyph glyph-name="uni013B" unicode="&#x13b;" 
 />
    <glyph glyph-name="Lcaron" unicode="&#x13d;" 
 />
    <glyph glyph-name="Ldot" unicode="&#x13f;" 
 />
    <glyph glyph-name="Lslash" unicode="&#x141;" 
 />
    <glyph glyph-name="Nacute" unicode="&#x143;" horiz-adv-x="1241" 
 />
    <glyph glyph-name="uni0145" unicode="&#x145;" horiz-adv-x="1241" 
 />
    <glyph glyph-name="Ncaron" unicode="&#x147;" horiz-adv-x="1241" 
 />
    <glyph glyph-name="Eng" unicode="&#x14a;" horiz-adv-x="1241" 
 />
    <glyph glyph-name="Omacron" unicode="&#x14c;" horiz-adv-x="1377" 
 />
    <glyph glyph-name="Obreve" unicode="&#x14e;" horiz-adv-x="1377" 
 />
    <glyph glyph-name="Ohungarumlaut" unicode="&#x150;" horiz-adv-x="1377" 
 />
    <glyph glyph-name="OE" unicode="&#x152;" horiz-adv-x="1924" 
 />
    <glyph glyph-name="Racute" unicode="&#x154;" horiz-adv-x="1292" 
 />
    <glyph glyph-name="uni0156" unicode="&#x156;" horiz-adv-x="1292" 
 />
    <glyph glyph-name="Rcaron" unicode="&#x158;" horiz-adv-x="1292" 
 />
    <glyph glyph-name="Sacute" unicode="&#x15a;" horiz-adv-x="1255" 
 />
    <glyph glyph-name="Scircumflex" unicode="&#x15c;" horiz-adv-x="1255" 
 />
    <glyph glyph-name="Scedilla" unicode="&#x15e;" horiz-adv-x="1255" 
 />
    <glyph glyph-name="Scaron" unicode="&#x160;" horiz-adv-x="1255" 
 />
    <glyph glyph-name="uni0162" unicode="&#x162;" horiz-adv-x="1110" 
 />
    <glyph glyph-name="Tcaron" unicode="&#x164;" horiz-adv-x="1110" 
 />
    <glyph glyph-name="Tbar" unicode="&#x166;" horiz-adv-x="1110" 
 />
    <glyph glyph-name="Utilde" unicode="&#x168;" horiz-adv-x="1257" 
 />
    <glyph glyph-name="Umacron" unicode="&#x16a;" horiz-adv-x="1257" 
 />
    <glyph glyph-name="Ubreve" unicode="&#x16c;" horiz-adv-x="1257" 
 />
    <glyph glyph-name="Uring" unicode="&#x16e;" horiz-adv-x="1257" 
 />
    <glyph glyph-name="Uhungarumlaut" unicode="&#x170;" horiz-adv-x="1257" 
 />
    <glyph glyph-name="Uogonek" unicode="&#x172;" horiz-adv-x="1257" 
 />
    <glyph glyph-name="Wcircumflex" unicode="&#x174;" horiz-adv-x="1950" 
 />
    <glyph glyph-name="Ycircumflex" unicode="&#x176;" horiz-adv-x="1129" 
 />
    <glyph glyph-name="Ydieresis" unicode="&#x178;" horiz-adv-x="1129" 
 />
    <glyph glyph-name="Zacute" unicode="&#x179;" horiz-adv-x="1086" 
 />
    <glyph glyph-name="Zdotaccent" unicode="&#x17b;" horiz-adv-x="1086" 
 />
    <glyph glyph-name="Zcaron" unicode="&#x17d;" horiz-adv-x="1086" 
 />
    <glyph glyph-name="perthousand" unicode="&#x2030;" horiz-adv-x="2294" 
 />
    <glyph glyph-name="uni0326" unicode="&#x326;" horiz-adv-x="383" 
 />
    <glyph glyph-name="aogonek" unicode="&#x105;" horiz-adv-x="1417" 
 />
    <glyph glyph-name="cacute" unicode="&#x107;" horiz-adv-x="1134" 
 />
    <glyph glyph-name="eogonek" unicode="&#x119;" 
 />
    <glyph glyph-name="lslash" unicode="&#x142;" 
 />
    <glyph glyph-name="nacute" unicode="&#x144;" horiz-adv-x="1241" 
 />
    <glyph glyph-name="zdotaccent" unicode="&#x17c;" horiz-adv-x="1086" 
 />
    <glyph glyph-name="zacute" unicode="&#x17a;" horiz-adv-x="1086" 
 />
    <glyph glyph-name="sacute" unicode="&#x15b;" horiz-adv-x="1255" 
 />
    <glyph glyph-name="amacron" unicode="&#x101;" horiz-adv-x="1417" 
 />
    <glyph glyph-name="abreve" unicode="&#x103;" horiz-adv-x="1417" 
 />
    <glyph glyph-name="ccircumflex" unicode="&#x109;" horiz-adv-x="1134" 
 />
    <glyph glyph-name="cdotaccent" unicode="&#x10b;" horiz-adv-x="1134" 
 />
    <glyph glyph-name="ccaron" unicode="&#x10d;" 
 />
    <glyph glyph-name="dcaron" unicode="&#x10f;" horiz-adv-x="1164" 
 />
    <glyph glyph-name="dcroat" unicode="&#x111;" horiz-adv-x="1273" 
 />
    <glyph glyph-name="emacron" unicode="&#x113;" 
 />
    <glyph glyph-name="ebreve" unicode="&#x115;" 
 />
    <glyph glyph-name="edotaccent" unicode="&#x117;" 
 />
    <glyph glyph-name="ecaron" unicode="&#x11b;" 
 />
    <glyph glyph-name="gcircumflex" unicode="&#x11d;" horiz-adv-x="1164" 
 />
    <glyph glyph-name="gbreve" unicode="&#x11f;" horiz-adv-x="1164" 
 />
    <glyph glyph-name="gdotaccent" unicode="&#x121;" horiz-adv-x="1164" 
 />
    <glyph glyph-name="uni0123" unicode="&#x123;" horiz-adv-x="1164" 
 />
    <glyph glyph-name="hcircumflex" unicode="&#x125;" horiz-adv-x="1174" 
 />
    <glyph glyph-name="hbar" unicode="&#x127;" horiz-adv-x="1210" 
 />
    <glyph glyph-name="itilde" unicode="&#x129;" horiz-adv-x="467" 
 />
    <glyph glyph-name="imacron" unicode="&#x12b;" horiz-adv-x="467" 
 />
    <glyph glyph-name="ibreve" unicode="&#x12d;" horiz-adv-x="467" 
 />
    <glyph glyph-name="iogonek" unicode="&#x12f;" horiz-adv-x="467" 
 />
    <glyph glyph-name="ij" unicode="&#x133;" horiz-adv-x="1351" 
 />
    <glyph glyph-name="jcircumflex" unicode="&#x135;" horiz-adv-x="884" 
 />
    <glyph glyph-name="uni0137" unicode="&#x137;" horiz-adv-x="1353" 
 />
    <glyph glyph-name="lacute" unicode="&#x13a;" 
 />
    <glyph glyph-name="uni013C" unicode="&#x13c;" 
 />
    <glyph glyph-name="lcaron" unicode="&#x13e;" 
 />
    <glyph glyph-name="ldot" unicode="&#x140;" 
 />
    <glyph glyph-name="uni0146" unicode="&#x146;" horiz-adv-x="1241" 
 />
    <glyph glyph-name="ncaron" unicode="&#x148;" horiz-adv-x="1241" 
 />
    <glyph glyph-name="napostrophe" unicode="&#x149;" horiz-adv-x="1601" 
 />
    <glyph glyph-name="eng" unicode="&#x14b;" horiz-adv-x="1241" 
 />
    <glyph glyph-name="omacron" unicode="&#x14d;" horiz-adv-x="1377" 
 />
    <glyph glyph-name="obreve" unicode="&#x14f;" horiz-adv-x="1377" 
 />
    <glyph glyph-name="ohungarumlaut" unicode="&#x151;" horiz-adv-x="1377" 
 />
    <glyph glyph-name="oe" unicode="&#x153;" horiz-adv-x="1924" 
 />
    <glyph glyph-name="racute" unicode="&#x155;" horiz-adv-x="1292" 
 />
    <glyph glyph-name="uni0157" unicode="&#x157;" horiz-adv-x="1292" 
 />
    <glyph glyph-name="rcaron" unicode="&#x159;" horiz-adv-x="1292" 
 />
    <glyph glyph-name="scircumflex" unicode="&#x15d;" horiz-adv-x="1255" 
 />
    <glyph glyph-name="scedilla" unicode="&#x15f;" horiz-adv-x="1255" 
 />
    <glyph glyph-name="scaron" unicode="&#x161;" horiz-adv-x="1255" 
 />
    <glyph glyph-name="uni0163" unicode="&#x163;" horiz-adv-x="1110" 
 />
    <glyph glyph-name="tcaron" unicode="&#x165;" horiz-adv-x="1110" 
 />
    <glyph glyph-name="tbar" unicode="&#x167;" horiz-adv-x="1110" 
 />
    <glyph glyph-name="utilde" unicode="&#x169;" horiz-adv-x="1257" 
 />
    <glyph glyph-name="umacron" unicode="&#x16b;" horiz-adv-x="1257" 
 />
    <glyph glyph-name="ubreve" unicode="&#x16d;" horiz-adv-x="1257" 
 />
    <glyph glyph-name="uring" unicode="&#x16f;" horiz-adv-x="1257" 
 />
    <glyph glyph-name="uhungarumlaut" unicode="&#x171;" horiz-adv-x="1257" 
 />
    <glyph glyph-name="uogonek" unicode="&#x173;" horiz-adv-x="1257" 
 />
    <glyph glyph-name="wcircumflex" unicode="&#x175;" horiz-adv-x="1950" 
 />
    <glyph glyph-name="ycircumflex" unicode="&#x177;" horiz-adv-x="1129" 
 />
    <glyph glyph-name="zcaron" unicode="&#x17e;" horiz-adv-x="1086" 
 />
    <glyph glyph-name="uni0400" unicode="&#x400;" 
 />
    <glyph glyph-name="uni0401" unicode="&#x401;" 
 />
    <glyph glyph-name="uni0402" unicode="&#x402;" horiz-adv-x="1524" 
 />
    <glyph glyph-name="uni0403" unicode="&#x403;" horiz-adv-x="945" 
 />
    <glyph glyph-name="uni0404" unicode="&#x404;" horiz-adv-x="1365" 
 />
    <glyph glyph-name="uni0405" unicode="&#x405;" horiz-adv-x="1255" 
 />
    <glyph glyph-name="uni0406" unicode="&#x406;" horiz-adv-x="467" 
 />
    <glyph glyph-name="uni0407" unicode="&#x407;" horiz-adv-x="467" 
 />
    <glyph glyph-name="uni0408" unicode="&#x408;" horiz-adv-x="884" 
 />
    <glyph glyph-name="uni0409" unicode="&#x409;" horiz-adv-x="2085" 
 />
    <glyph glyph-name="uni040A" unicode="&#x40a;" horiz-adv-x="1930" 
 />
    <glyph glyph-name="uni040B" unicode="&#x40b;" horiz-adv-x="1509" 
 />
    <glyph glyph-name="uni040C" unicode="&#x40c;" horiz-adv-x="1333" 
 />
    <glyph glyph-name="uni040D" unicode="&#x40d;" horiz-adv-x="1241" 
 />
    <glyph glyph-name="uni040E" unicode="&#x40e;" horiz-adv-x="1432" 
 />
    <glyph glyph-name="uni040F" unicode="&#x40f;" horiz-adv-x="1222" 
 />
    <glyph glyph-name="uni0410" unicode="&#x410;" horiz-adv-x="1417" 
 />
    <glyph glyph-name="uni0411" unicode="&#x411;" horiz-adv-x="1227" 
 />
    <glyph glyph-name="uni0412" unicode="&#x412;" horiz-adv-x="1162" 
 />
    <glyph glyph-name="uni0413" unicode="&#x413;" horiz-adv-x="945" 
 />
    <glyph glyph-name="uni0414" unicode="&#x414;" horiz-adv-x="1435" 
d="M482 317q73 160 73 311v453h272v-764h-345zM1144 317v1083h-899v-772q0 -151 -96 -311h-149v-504h264v187h756v-187h265v504h-141z" />
    <glyph glyph-name="uni0415" unicode="&#x415;" 
 />
    <glyph glyph-name="uni0416" unicode="&#x416;" horiz-adv-x="2131" 
d="M827 1400h328v-1400h-328v1400zM1582 0h386l-420 703l433 697h-391l-358 -604q-22 -40 -22 -91q0 -50 21 -90zM750 615q21 40 21 90q0 51 -22 91l-358 604h-391l433 -697l-420 -703h386z" />
    <glyph glyph-name="uni0417" unicode="&#x417;" horiz-adv-x="1113" 
 />
    <glyph glyph-name="uni0418" unicode="&#x418;" horiz-adv-x="1241" 
 />
    <glyph glyph-name="uni0419" unicode="&#x419;" horiz-adv-x="1241" 
 />
    <glyph glyph-name="uni041A" unicode="&#x41a;" horiz-adv-x="1353" 
 />
    <glyph glyph-name="uni041B" unicode="&#x41b;" horiz-adv-x="1425" 
 />
    <glyph glyph-name="uni041C" unicode="&#x41c;" horiz-adv-x="1409" 
 />
    <glyph glyph-name="uni041D" unicode="&#x41d;" horiz-adv-x="1174" 
 />
    <glyph glyph-name="uni041E" unicode="&#x41e;" horiz-adv-x="1377" 
 />
    <glyph glyph-name="uni041F" unicode="&#x41f;" horiz-adv-x="1222" 
 />
    <glyph glyph-name="uni0420" unicode="&#x420;" horiz-adv-x="1219" 
 />
    <glyph glyph-name="uni0421" unicode="&#x421;" horiz-adv-x="1134" 
 />
    <glyph glyph-name="uni0422" unicode="&#x422;" horiz-adv-x="1110" 
 />
    <glyph glyph-name="uni0423" unicode="&#x423;" horiz-adv-x="1432" 
 />
    <glyph glyph-name="uni0424" unicode="&#x424;" horiz-adv-x="1477" 
 />
    <glyph glyph-name="uni0425" unicode="&#x425;" horiz-adv-x="1350" 
 />
    <glyph glyph-name="uni0426" unicode="&#x426;" horiz-adv-x="1364" 
 />
    <glyph glyph-name="uni0427" unicode="&#x427;" horiz-adv-x="1232" 
 />
    <glyph glyph-name="uni0428" unicode="&#x428;" horiz-adv-x="1562" 
 />
    <glyph glyph-name="uni0429" unicode="&#x429;" horiz-adv-x="1705" 
 />
    <glyph glyph-name="uni042A" unicode="&#x42a;" horiz-adv-x="1541" 
 />
    <glyph glyph-name="uni042B" unicode="&#x42b;" horiz-adv-x="1677" 
 />
    <glyph glyph-name="uni042C" unicode="&#x42c;" horiz-adv-x="1227" 
 />
    <glyph glyph-name="uni042D" unicode="&#x42d;" horiz-adv-x="1365" 
 />
    <glyph glyph-name="uni042E" unicode="&#x42e;" horiz-adv-x="1854" 
d="M1108 1108h-35q-273 -2 -273 -328v-170q0 -321 282 -321h17q282 0 282 321v170q0 326 -273 328zM317 532v-532h-317v1407h317v-534h166q52 537 497 537h221q503 0 503 -710t-503 -710h-221q-447 0 -497 542h-166z" />
    <glyph glyph-name="uni042F" unicode="&#x42f;" horiz-adv-x="1292" 
 />
    <glyph glyph-name="uni0430" unicode="&#x430;" horiz-adv-x="1417" 
 />
    <glyph glyph-name="uni0431" unicode="&#x431;" horiz-adv-x="1227" 
 />
    <glyph glyph-name="uni0432" unicode="&#x432;" horiz-adv-x="1162" 
 />
    <glyph glyph-name="uni0433" unicode="&#x433;" horiz-adv-x="945" 
 />
    <glyph glyph-name="uni0434" unicode="&#x434;" horiz-adv-x="1435" 
d="M482 317q73 160 73 311v453h272v-764h-345zM1144 317v1083h-899v-772q0 -151 -96 -311h-149v-504h264v187h756v-187h265v504h-141z" />
    <glyph glyph-name="uni0435" unicode="&#x435;" 
 />
    <glyph glyph-name="uni0436" unicode="&#x436;" horiz-adv-x="2131" 
d="M827 1400h328v-1400h-328v1400zM1582 0h386l-420 703l433 697h-391l-358 -604q-22 -40 -22 -91q0 -50 21 -90zM750 615q21 40 21 90q0 51 -22 91l-358 604h-391l433 -697l-420 -703h386z" />
    <glyph glyph-name="uni0437" unicode="&#x437;" horiz-adv-x="1113" 
 />
    <glyph glyph-name="uni0438" unicode="&#x438;" horiz-adv-x="1241" 
 />
    <glyph glyph-name="uni0439" unicode="&#x439;" horiz-adv-x="1241" 
 />
    <glyph glyph-name="uni043A" unicode="&#x43a;" horiz-adv-x="1353" 
 />
    <glyph glyph-name="uni043B" unicode="&#x43b;" horiz-adv-x="1425" 
 />
    <glyph glyph-name="uni043C" unicode="&#x43c;" horiz-adv-x="1409" 
 />
    <glyph glyph-name="uni043D" unicode="&#x43d;" horiz-adv-x="1174" 
 />
    <glyph glyph-name="uni043E" unicode="&#x43e;" horiz-adv-x="1377" 
 />
    <glyph glyph-name="uni043F" unicode="&#x43f;" horiz-adv-x="1222" 
 />
    <glyph glyph-name="uni0440" unicode="&#x440;" horiz-adv-x="1219" 
 />
    <glyph glyph-name="uni0441" unicode="&#x441;" horiz-adv-x="1134" 
 />
    <glyph glyph-name="uni0442" unicode="&#x442;" horiz-adv-x="1110" 
 />
    <glyph glyph-name="uni0443" unicode="&#x443;" horiz-adv-x="1432" 
 />
    <glyph glyph-name="uni0444" unicode="&#x444;" horiz-adv-x="1477" 
 />
    <glyph glyph-name="uni0445" unicode="&#x445;" horiz-adv-x="1350" 
 />
    <glyph glyph-name="uni0446" unicode="&#x446;" horiz-adv-x="1364" 
 />
    <glyph glyph-name="uni0447" unicode="&#x447;" horiz-adv-x="1232" 
 />
    <glyph glyph-name="uni0448" unicode="&#x448;" horiz-adv-x="1562" 
 />
    <glyph glyph-name="uni0449" unicode="&#x449;" horiz-adv-x="1705" 
 />
    <glyph glyph-name="uni044A" unicode="&#x44a;" horiz-adv-x="1541" 
 />
    <glyph glyph-name="uni044B" unicode="&#x44b;" horiz-adv-x="1677" 
 />
    <glyph glyph-name="uni044C" unicode="&#x44c;" horiz-adv-x="1227" 
 />
    <glyph glyph-name="uni044D" unicode="&#x44d;" horiz-adv-x="1365" 
 />
    <glyph glyph-name="uni044E" unicode="&#x44e;" horiz-adv-x="1854" 
d="M1108 1108h-35q-273 -2 -273 -328v-170q0 -321 282 -321h17q282 0 282 321v170q0 326 -273 328zM317 532v-532h-317v1407h317v-534h166q52 537 497 537h221q503 0 503 -710t-503 -710h-221q-447 0 -497 542h-166z" />
    <glyph glyph-name="uni044F" unicode="&#x44f;" horiz-adv-x="1292" 
 />
    <glyph glyph-name="uni0450" unicode="&#x450;" 
 />
    <glyph glyph-name="uni0451" unicode="&#x451;" 
 />
    <glyph glyph-name="uni0452" unicode="&#x452;" horiz-adv-x="1524" 
 />
    <glyph glyph-name="uni0453" unicode="&#x453;" horiz-adv-x="945" 
 />
    <glyph glyph-name="uni0454" unicode="&#x454;" horiz-adv-x="1365" 
 />
    <glyph glyph-name="uni0455" unicode="&#x455;" horiz-adv-x="1255" 
 />
    <glyph glyph-name="uni0456" unicode="&#x456;" horiz-adv-x="467" 
 />
    <glyph glyph-name="uni0457" unicode="&#x457;" horiz-adv-x="467" 
 />
    <glyph glyph-name="uni0458" unicode="&#x458;" horiz-adv-x="884" 
 />
    <glyph glyph-name="uni0459" unicode="&#x459;" horiz-adv-x="2085" 
 />
    <glyph glyph-name="uni045A" unicode="&#x45a;" horiz-adv-x="1930" 
 />
    <glyph glyph-name="uni045B" unicode="&#x45b;" horiz-adv-x="1509" 
 />
    <glyph glyph-name="uni045C" unicode="&#x45c;" horiz-adv-x="1333" 
 />
    <glyph glyph-name="uni045D" unicode="&#x45d;" horiz-adv-x="1241" 
 />
    <glyph glyph-name="uni045E" unicode="&#x45e;" horiz-adv-x="1432" 
 />
    <glyph glyph-name="uni045F" unicode="&#x45f;" horiz-adv-x="1222" 
 />
    <glyph glyph-name="uni0490" unicode="&#x490;" horiz-adv-x="945" 
 />
    <glyph glyph-name="uni0491" unicode="&#x491;" horiz-adv-x="945" 
 />
    </font>
</defs>
</svg>
