<?xml version="1.0" standalone="no"?>
<!DOCTYPE svg PUBLIC "-//W3C//DTD SVG 20010904//EN"
 "http://www.w3.org/TR/2001/REC-SVG-20010904/DTD/svg10.dtd">
<svg version="1.0" xmlns="http://www.w3.org/2000/svg"
 width="700.000000pt" height="700.000000pt" viewBox="0 0 700.000000 700.000000"
 preserveAspectRatio="xMidYMid meet">
<metadata>
Created by potrace 1.14, written by Peter Selinger 2001-2017
</metadata>
<g transform="translate(0.000000,700.000000) scale(0.100000,-0.100000)"
fill="#000000" stroke="none">
<path d="M3070 6149 c-285 -37 -585 -167 -800 -346 -197 -164 -367 -401 -458
-638 -73 -190 -104 -348 -105 -545 -1 -233 37 -434 122 -629 l39 -93 -26 -28
c-148 -155 -293 -397 -356 -595 -36 -111 -74 -300 -76 -372 0 -16 -10 -25 -35
-33 -49 -16 -172 -99 -224 -151 -100 -101 -173 -232 -204 -369 -19 -81 -20
-247 -2 -325 52 -221 197 -406 400 -508 105 -52 169 -67 310 -72 107 -4 193 9
286 45 66 25 61 25 90 -1 86 -77 329 -207 474 -255 180 -59 310 -79 515 -78
220 0 293 11 489 72 109 34 114 34 124 16 22 -42 113 -118 175 -147 62 -30 75
-32 173 -32 101 0 108 1 181 38 118 58 195 155 228 288 9 36 16 45 33 45 21 1
92 10 152 20 63 10 209 52 260 73 11 5 45 19 75 31 373 150 705 489 865 885
l40 100 44 -1 c186 -4 357 117 411 294 77 248 -83 497 -344 537 l-69 10 -27
95 c-15 52 -39 127 -55 165 -31 79 -110 232 -131 256 -8 8 -14 19 -14 23 0 4
-5 12 -10 19 -6 7 -34 44 -62 82 -153 207 -442 430 -670 516 -45 17 -58 26
-59 43 -3 87 -9 168 -14 206 -4 25 -9 59 -11 76 -7 58 -53 221 -84 301 -125
314 -357 592 -640 764 -158 96 -325 161 -514 200 -112 24 -380 33 -496 18z
m1839 -1780 c269 -127 529 -378 663 -639 24 -47 54 -109 66 -138 21 -49 72
-214 72 -232 0 -5 -19 -19 -42 -33 -198 -117 -270 -369 -162 -567 26 -48 108
-134 148 -157 17 -9 17 -14 6 -49 -26 -80 -100 -225 -166 -325 -90 -138 -262
-311 -399 -401 -199 -133 -413 -212 -652 -243 l-52 -7 -26 58 c-14 32 -37 73
-51 92 l-26 33 41 57 c111 154 210 367 257 549 67 264 64 600 -6 828 -31 98
-67 191 -106 274 l-44 93 41 47 c100 113 213 316 268 481 50 149 50 150 63
238 7 45 14 82 16 82 2 0 43 -18 91 -41z m-2928 -656 c142 -212 398 -427 632
-532 l47 -21 1 -103 c1 -194 22 -337 73 -498 31 -98 39 -115 102 -244 76 -154
169 -281 305 -416 114 -114 277 -235 390 -290 43 -20 46 -24 39 -48 -4 -14 -6
-56 -5 -93 l1 -68 -75 -24 c-170 -56 -300 -78 -464 -78 -99 0 -194 7 -245 17
-161 31 -315 84 -439 150 -90 48 -202 117 -202 125 -1 3 29 37 67 77 150 160
215 329 208 543 -5 125 -22 197 -76 307 -90 182 -262 329 -450 383 -25 7 -57
16 -72 20 -15 5 -78 9 -140 9 -132 0 -126 -9 -96 131 39 183 109 355 206 504
54 82 142 195 154 195 4 1 21 -20 39 -46z m2362 -305 c51 -108 95 -240 117
-352 20 -97 20 -105 25 -251 5 -175 -8 -285 -51 -432 -52 -179 -128 -338 -225
-469 l-39 -53 -57 20 c-59 21 -155 27 -222 15 -60 -12 -140 -56 -200 -111
l-58 -54 -80 45 c-264 149 -480 383 -608 658 -39 83 -85 214 -101 283 -23 108
-34 194 -38 315 l-3 85 84 -23 c46 -12 85 -22 86 -22 1 0 29 -3 61 -7 110 -14
121 -15 226 -15 191 0 308 19 515 84 16 5 67 25 110 43 51 22 208 104 215 112
3 3 23 18 45 32 22 14 69 49 104 78 35 28 68 51 71 51 4 0 15 -15 23 -32z"/>
</g>
</svg>
